<svg xmlns="http://www.w3.org/2000/svg" xmlns:xlink="http://www.w3.org/1999/xlink" width="1024" zoomAndPan="magnify" viewBox="0 0 768 767.999994" height="1024" preserveAspectRatio="xMidYMid meet" version="1.2"><defs><clipPath id="dc895f9a9b"><path d="M 159.933594 159.933594 L 608.433594 159.933594 L 608.433594 608.433594 L 159.933594 608.433594 Z M 159.933594 159.933594 "/></clipPath><clipPath id="853ffcefaa"><path d="M 316 343 L 455 343 L 455 451 L 316 451 Z M 316 343 "/></clipPath><clipPath id="6f05bf1002"><path d="M 289.539062 401.058594 L 363.085938 290.546875 L 477.96875 367.003906 L 404.421875 477.519531 Z M 289.539062 401.058594 "/></clipPath><clipPath id="e6e91a6846"><path d="M 289.539062 401.058594 L 363.085938 290.546875 L 477.96875 367.003906 L 404.421875 477.519531 Z M 289.539062 401.058594 "/></clipPath><clipPath id="c983d025e2"><path d="M 246 315 L 527 315 L 527 534 L 246 534 Z M 246 315 "/></clipPath><clipPath id="e39efd61ce"><path d="M 192.816406 432.824219 L 341.992188 208.675781 L 574.878906 363.667969 L 425.703125 587.816406 Z M 192.816406 432.824219 "/></clipPath><clipPath id="1d77710230"><path d="M 192.816406 432.824219 L 341.992188 208.675781 L 574.878906 363.667969 L 425.703125 587.816406 Z M 192.816406 432.824219 "/></clipPath><clipPath id="4ce463edaf"><path d="M 345 330 L 414 330 L 414 419 L 345 419 Z M 345 330 "/></clipPath><clipPath id="35bb7ff745"><path d="M 360.839844 330.675781 L 433.679688 354.050781 L 406.867188 437.605469 L 334.027344 414.226562 Z M 360.839844 330.675781 "/></clipPath><clipPath id="043fa833c0"><path d="M 360.839844 330.675781 L 433.679688 354.050781 L 406.867188 437.605469 L 334.027344 414.226562 Z M 360.839844 330.675781 "/></clipPath><clipPath id="d300011926"><path d="M 346 239.773438 L 422.417969 239.773438 L 422.417969 312.523438 L 346 312.523438 Z M 346 239.773438 "/></clipPath></defs><g id="95b9b09612"><rect x="0" width="768" y="0" height="767.999994" style="fill:#ffffff;fill-opacity:1;stroke:none;"/><rect x="0" width="768" y="0" height="767.999994" style="fill:#fffcf5;fill-opacity:1;stroke:none;"/><g clip-rule="nonzero" clip-path="url(#dc895f9a9b)"><path style=" stroke:none;fill-rule:nonzero;fill:#fbca41;fill-opacity:1;" d="M 383.996094 159.933594 C 260.320312 159.933594 159.933594 260.320312 159.933594 383.996094 C 159.933594 507.667969 260.320312 608.058594 383.996094 608.058594 C 507.667969 608.058594 608.058594 507.667969 608.058594 383.996094 C 608.058594 260.320312 507.667969 159.933594 383.996094 159.933594 Z M 383.996094 172.378906 C 500.941406 172.378906 595.609375 267.050781 595.609375 383.996094 C 595.609375 500.941406 500.941406 595.609375 383.996094 595.609375 C 267.050781 595.609375 172.378906 500.941406 172.378906 383.996094 C 172.378906 267.050781 267.050781 172.378906 383.996094 172.378906 Z M 383.996094 172.378906 "/></g><g clip-rule="nonzero" clip-path="url(#853ffcefaa)"><g clip-rule="nonzero" clip-path="url(#6f05bf1002)"><g clip-rule="nonzero" clip-path="url(#e6e91a6846)"><path style=" stroke:none;fill-rule:evenodd;fill:#fbca41;fill-opacity:1;" d="M 442.476562 343.371094 C 442.722656 354.847656 439.585938 366.511719 432.742188 376.789062 C 414.949219 403.527344 378.851562 410.777344 352.113281 392.980469 C 335.742188 382.085938 326.675781 364.324219 326.195312 346.050781 C 307.085938 377.496094 316.042969 418.699219 346.957031 439.273438 C 378.679688 460.386719 421.507812 451.785156 442.617188 420.0625 C 458.550781 396.121094 457.558594 365.851562 442.476562 343.371094 Z M 442.476562 343.371094 "/></g></g></g><g clip-rule="nonzero" clip-path="url(#c983d025e2)"><g clip-rule="nonzero" clip-path="url(#e39efd61ce)"><g clip-rule="nonzero" clip-path="url(#1d77710230)"><path style=" stroke:none;fill-rule:evenodd;fill:#fbca41;fill-opacity:1;" d="M 502.847656 315.875 C 503.347656 339.140625 496.984375 362.785156 483.117188 383.625 C 447.046875 437.820312 373.867188 452.515625 319.667969 416.445312 C 286.480469 394.359375 268.101562 358.351562 267.128906 321.3125 C 228.390625 385.054688 246.542969 468.582031 309.214844 510.289062 C 373.519531 553.085938 460.339844 535.648438 503.132812 471.347656 C 535.433594 422.8125 533.421875 361.453125 502.847656 315.875 Z M 502.847656 315.875 "/></g></g></g><g clip-rule="nonzero" clip-path="url(#4ce463edaf)"><g clip-rule="nonzero" clip-path="url(#35bb7ff745)"><g clip-rule="nonzero" clip-path="url(#043fa833c0)"><path style=" stroke:none;fill-rule:nonzero;fill:#fbca41;fill-opacity:1;" d="M 345.984375 417.449219 C 345.984375 417.449219 404.882812 379.339844 360.84375 330.6875 C 360.84375 330.6875 413.585938 347.734375 413.070312 418.289062 C 413.070312 418.289062 391.410156 398.832031 345.984375 417.449219 "/></g></g></g><g clip-rule="nonzero" clip-path="url(#d300011926)"><path style=" stroke:none;fill-rule:nonzero;fill:#fbca41;fill-opacity:1;" d="M 420.925781 271.304688 L 405.472656 286.335938 L 409.121094 307.5625 C 409.382812 309.074219 408.757812 310.601562 407.515625 311.5 C 406.8125 312.011719 405.976562 312.269531 405.140625 312.269531 C 404.496094 312.269531 403.855469 312.117188 403.261719 311.808594 L 384.164062 301.789062 L 365.070312 311.808594 C 363.707031 312.523438 362.0625 312.402344 360.816406 311.5 C 359.574219 310.601562 358.953125 309.074219 359.210938 307.5625 L 362.859375 286.335938 L 347.410156 271.304688 C 346.308594 270.234375 345.914062 268.632812 346.386719 267.175781 C 346.863281 265.71875 348.125 264.65625 349.648438 264.433594 L 371 261.335938 L 380.546875 242.027344 C 381.222656 240.648438 382.625 239.78125 384.164062 239.78125 C 385.703125 239.78125 387.105469 240.648438 387.785156 242.027344 L 397.332031 261.335938 L 418.683594 264.433594 C 420.207031 264.65625 421.46875 265.71875 421.941406 267.175781 C 422.417969 268.632812 422.019531 270.234375 420.921875 271.304688 Z M 420.925781 271.304688 "/></g></g></svg>